<?xml version="1.0" encoding="UTF-8" ?>
<!DOCTYPE svg PUBLIC "-//W3C//DTD SVG 1.1//EN" "http://www.w3.org/Graphics/SVG/1.1/DTD/svg11.dtd">
<svg width="691pt" height="73pt" viewBox="0 0 691 73" version="1.1" xmlns="http://www.w3.org/2000/svg">
<g id="#019cdeff">
<path fill="#019cde" opacity="1.00" d=" M 0.00 0.00 L 46.49 0.00 C 47.31 9.29 46.80 18.68 46.84 28.01 C 47.13 43.01 46.46 58.01 47.18 73.00 L 0.00 73.00 L 0.00 0.00 M 12.43 56.80 C 15.17 56.83 17.92 56.84 20.66 56.85 C 21.00 54.34 21.33 51.82 21.61 49.30 C 22.86 49.34 24.11 49.37 25.35 49.41 C 25.60 51.90 25.86 54.39 26.17 56.87 C 29.07 56.86 31.97 56.86 34.87 56.87 C 32.84 43.08 30.55 29.32 28.31 15.56 C 25.34 15.54 22.36 15.53 19.38 15.49 C 16.67 29.19 15.06 43.08 12.43 56.80 Z" />
<path fill="#019cde" opacity="1.00" d=" M 49.92 0.00 L 96.11 0.00 C 96.06 24.33 96.12 48.67 96.09 73.00 L 50.60 73.00 C 49.51 70.15 49.94 67.04 49.88 64.06 C 49.95 42.71 49.87 21.35 49.92 0.00 M 62.47 16.16 C 62.55 29.71 62.49 43.26 62.50 56.81 C 65.29 56.84 68.08 56.85 70.86 56.86 C 70.79 52.15 70.78 47.42 71.42 42.75 C 72.59 47.42 73.75 52.11 74.74 56.82 C 77.61 56.85 80.48 56.85 83.35 56.84 C 81.94 51.45 80.65 46.02 79.38 40.59 C 83.62 34.75 83.94 26.09 80.13 19.98 C 76.08 14.33 68.37 16.42 62.47 16.16 Z" />
<path fill="#019cde" opacity="1.00" d=" M 98.86 0.00 L 146.43 0.00 C 145.51 24.31 146.59 48.68 145.80 73.00 L 99.69 73.00 C 99.03 71.40 99.08 69.66 99.08 67.97 C 99.18 60.97 99.14 53.97 99.15 46.97 C 98.59 31.32 99.38 15.66 98.86 0.00 M 108.09 16.08 C 107.96 29.68 108.39 43.26 108.29 56.85 C 110.69 56.85 113.09 56.84 115.49 56.83 C 115.51 50.82 115.64 44.80 115.40 38.80 C 116.24 44.81 117.35 50.78 118.06 56.80 C 119.56 56.82 121.06 56.84 122.57 56.85 C 123.58 51.87 123.99 46.81 124.54 41.76 C 124.87 46.77 124.81 51.79 124.93 56.81 C 127.72 56.84 130.50 56.85 133.29 56.85 C 133.38 43.29 133.29 29.72 133.34 16.16 C 129.85 16.08 126.36 16.08 122.87 16.17 C 122.21 23.07 121.59 29.98 120.78 36.86 C 119.67 29.99 118.93 23.06 118.27 16.14 C 114.88 16.09 111.48 16.09 108.09 16.08 Z" />
<path fill="#019cde" opacity="1.00" d=" M 147.13 0.00 L 194.12 0.00 C 194.06 24.33 194.13 48.67 194.08 73.00 L 146.56 73.00 C 147.37 48.68 146.34 24.32 147.13 0.00 M 168.54 13.92 C 170.66 13.96 172.78 13.96 174.91 13.88 C 176.18 11.14 177.58 8.46 178.90 5.74 C 176.47 5.72 174.04 5.71 171.60 5.69 C 170.55 8.42 169.56 11.18 168.54 13.92 M 167.21 15.56 C 164.90 29.30 162.94 43.11 160.45 56.82 C 163.18 56.84 165.91 56.85 168.64 56.85 C 168.98 54.33 169.34 51.81 169.62 49.29 C 170.87 49.34 172.13 49.38 173.38 49.44 C 173.60 51.91 173.85 54.39 174.16 56.86 C 177.05 56.85 179.95 56.84 182.84 56.84 C 180.87 43.05 178.55 29.31 176.29 15.56 C 173.26 15.55 170.23 15.55 167.21 15.56 Z" />
<path fill="#019cde" opacity="1.00" d=" M 246.88 0.00 L 292.31 0.00 C 293.25 1.49 293.12 3.31 293.19 4.99 C 293.08 27.66 293.20 50.33 293.13 73.00 L 247.77 73.00 C 246.60 71.62 246.95 69.67 246.81 68.01 C 246.92 45.34 246.81 22.67 246.88 0.00 M 261.32 16.12 C 261.33 18.57 261.33 21.03 261.34 23.49 C 262.98 23.49 264.64 23.51 266.29 23.52 C 266.29 34.63 266.28 45.73 266.31 56.84 C 269.16 56.84 272.02 56.85 274.87 56.86 C 275.00 45.73 274.53 34.57 275.12 23.45 C 276.70 23.48 278.28 23.50 279.86 23.53 C 279.88 21.05 279.90 18.58 279.91 16.10 C 273.71 16.09 267.52 16.11 261.32 16.12 Z" />
<path fill="#019cde" opacity="1.00" d=" M 296.11 0.00 L 342.39 0.00 C 343.08 3.96 342.69 7.99 342.77 11.99 C 342.78 32.32 342.70 52.66 342.81 73.00 L 296.53 73.00 C 295.82 69.03 296.11 64.99 296.09 60.99 C 296.12 40.66 296.10 20.33 296.11 0.00 M 308.32 15.71 C 308.24 25.82 308.29 35.93 308.28 46.03 C 308.31 49.38 308.85 53.21 311.61 55.46 C 315.43 57.91 320.70 57.99 324.53 55.52 C 327.83 53.14 328.27 48.72 328.31 44.98 C 328.28 35.23 328.32 25.49 328.27 15.74 C 325.56 15.72 322.85 15.71 320.14 15.70 C 319.81 27.07 320.62 38.48 319.66 49.82 C 319.11 49.84 318.02 49.89 317.48 49.91 C 316.15 38.58 317.22 27.11 316.82 15.72 C 313.99 15.72 311.15 15.71 308.32 15.71 Z" />
<path fill="#019cde" opacity="1.00" d=" M 396.11 0.00 L 443.35 0.00 C 442.96 24.33 443.33 48.67 443.16 73.00 L 396.36 73.00 C 395.84 48.68 396.34 24.33 396.11 0.00 M 411.31 16.12 C 411.35 29.69 411.34 43.26 411.31 56.82 C 416.65 56.88 421.99 56.87 427.33 56.82 C 427.32 54.45 427.32 52.08 427.33 49.71 C 424.92 49.72 422.52 49.72 420.12 49.74 C 419.85 46.11 419.84 42.47 420.14 38.84 C 421.71 38.85 423.29 38.86 424.87 38.87 C 424.85 36.63 424.85 34.39 424.87 32.14 C 423.22 32.10 421.58 32.05 419.94 31.98 C 419.88 29.14 419.95 26.29 420.14 23.45 C 422.36 23.48 424.59 23.49 426.82 23.52 C 426.84 21.05 426.86 18.58 426.89 16.11 C 421.70 16.10 416.50 16.08 411.31 16.12 Z" />
<path fill="#019cde" opacity="1.00" d=" M 444.83 0.00 L 491.36 0.00 C 491.81 1.27 492.04 2.59 492.04 3.94 C 491.74 26.96 491.99 49.98 491.89 73.00 L 444.65 73.00 C 445.05 48.67 444.68 24.33 444.83 0.00 M 463.52 16.56 C 460.42 18.56 459.14 22.25 458.47 25.70 C 457.50 31.38 457.47 37.19 457.94 42.92 C 458.44 47.28 459.08 52.32 462.80 55.20 C 466.64 57.45 464.58 62.68 467.14 65.82 C 469.22 68.97 473.39 68.64 476.67 68.33 C 476.66 65.82 476.64 63.30 476.62 60.79 C 475.33 60.62 474.04 60.46 472.76 60.29 C 472.37 59.24 471.98 58.20 471.60 57.16 C 477.83 53.95 478.71 46.29 479.25 40.05 C 479.49 33.44 479.46 26.45 476.70 20.31 C 474.58 15.35 467.93 13.99 463.52 16.56 Z" />
<path fill="#019cde" opacity="1.00" d=" M 494.87 0.00 L 541.27 0.00 C 540.96 24.33 541.24 48.67 541.13 73.00 L 494.73 73.00 C 495.04 48.67 494.76 24.33 494.87 0.00 M 507.37 15.73 C 507.30 25.84 507.33 35.94 507.33 46.05 C 507.40 49.35 507.73 53.22 510.55 55.40 C 514.16 57.85 519.06 57.90 522.92 55.99 C 526.58 53.68 527.32 48.99 527.35 45.01 C 527.32 35.25 527.35 25.49 527.31 15.73 C 524.59 15.72 521.87 15.71 519.16 15.70 C 519.13 24.82 519.10 33.93 519.17 43.05 C 519.18 45.53 518.84 48.00 518.37 50.43 C 515.65 50.01 516.10 47.09 515.92 45.07 C 515.85 35.27 515.98 25.48 515.86 15.69 C 513.03 15.71 510.19 15.72 507.37 15.73 Z" />
<path fill="#019cde" opacity="1.00" d=" M 544.13 0.00 L 591.59 0.00 C 592.07 24.32 591.67 48.67 591.78 73.00 L 544.02 73.00 C 544.34 48.67 543.82 24.33 544.13 0.00 M 563.12 16.11 C 563.17 29.69 563.12 43.27 563.15 56.85 C 566.00 56.84 568.86 56.85 571.72 56.85 C 571.72 43.27 571.70 29.69 571.74 16.11 C 568.86 16.10 565.99 16.10 563.12 16.11 Z" />
<path fill="#019cde" opacity="1.00" d=" M 594.87 0.00 L 641.27 0.00 C 640.97 24.33 641.25 48.67 641.13 73.00 L 595.64 73.00 C 594.45 70.50 594.90 67.66 594.82 64.99 C 594.91 43.32 594.82 21.66 594.87 0.00 M 608.27 16.13 C 608.31 29.64 608.28 43.15 608.29 56.66 C 611.14 56.66 613.98 56.66 616.83 56.68 C 616.83 52.62 616.83 48.56 616.91 44.50 C 620.07 44.08 623.90 43.88 625.87 40.95 C 628.59 36.93 628.67 31.77 628.37 27.09 C 628.16 22.86 626.33 18.03 621.92 16.64 C 617.46 15.57 612.81 16.25 608.27 16.13 Z" />
<path fill="#019cde" opacity="1.00" d=" M 644.10 0.00 L 691.00 0.00 L 691.00 73.00 L 644.51 73.00 C 644.24 71.36 644.08 69.70 644.07 68.04 C 644.15 45.36 644.10 22.68 644.10 0.00 M 665.09 16.17 C 660.92 16.42 658.20 20.32 657.36 24.08 C 655.72 30.23 656.03 36.71 656.29 43.01 C 656.54 46.97 657.27 51.08 659.49 54.46 C 662.82 59.06 670.95 58.85 673.83 53.85 C 677.02 48.53 676.75 42.01 676.87 36.02 C 676.62 30.46 676.85 24.35 673.60 19.55 C 671.79 16.76 668.27 15.67 665.09 16.17 Z" />
<path fill="#019cde" opacity="1.00" d=" M 467.46 23.48 C 467.98 23.48 469.01 23.49 469.53 23.50 C 470.74 32.10 470.68 40.97 469.52 49.58 C 469.01 49.60 467.98 49.66 467.47 49.69 C 466.43 45.51 466.63 41.20 466.67 36.94 C 466.73 32.44 466.28 27.87 467.46 23.48 Z" />
<path fill="#019cde" opacity="1.00" d=" M 71.29 23.57 C 73.51 22.72 73.91 26.44 74.03 27.97 C 73.89 31.10 74.98 36.26 70.96 37.26 C 70.95 32.70 70.43 28.08 71.29 23.57 Z" />
<path fill="#019cde" opacity="1.00" d=" M 616.89 37.07 C 617.05 32.27 616.18 27.30 617.70 22.64 C 620.85 25.97 620.34 30.91 619.58 35.03 C 619.42 36.43 617.94 36.65 616.89 37.07 Z" />
<path fill="#019cde" opacity="1.00" d=" M 665.04 27.94 C 665.44 26.66 664.97 23.58 667.15 24.07 C 668.93 30.19 667.80 36.72 668.09 43.00 C 667.77 45.50 668.51 48.95 665.89 50.44 C 664.32 43.06 664.80 35.43 665.04 27.94 Z" />
<path fill="#019cde" opacity="1.00" d=" M 22.16 43.54 C 22.37 38.90 22.73 34.27 23.46 29.68 C 23.89 34.33 24.53 38.95 24.79 43.61 C 24.14 43.59 22.82 43.56 22.16 43.54 Z" />
<path fill="#019cde" opacity="1.00" d=" M 171.41 29.65 C 171.88 34.29 172.52 38.92 172.80 43.58 C 172.14 43.58 170.80 43.57 170.13 43.56 C 170.40 38.91 170.80 34.27 171.41 29.65 Z" />
</g>
<g id="#feffffff">
<path fill="#feffff" opacity="1.00" d=" M 46.49 0.00 L 49.92 0.00 C 49.87 21.35 49.95 42.71 49.88 64.06 C 49.94 67.04 49.51 70.15 50.60 73.00 L 47.18 73.00 C 46.46 58.01 47.13 43.01 46.84 28.01 C 46.80 18.68 47.31 9.29 46.49 0.00 Z" />
<path fill="#feffff" opacity="1.00" d=" M 96.11 0.00 L 98.86 0.00 C 99.38 15.66 98.59 31.32 99.15 46.97 C 99.14 53.97 99.18 60.97 99.08 67.97 C 99.08 69.66 99.03 71.40 99.69 73.00 L 96.09 73.00 C 96.12 48.67 96.06 24.33 96.11 0.00 Z" />
<path fill="#feffff" opacity="1.00" d=" M 146.43 0.00 L 147.13 0.00 C 146.34 24.32 147.37 48.68 146.56 73.00 L 145.80 73.00 C 146.59 48.68 145.51 24.31 146.43 0.00 Z" />
<path fill="#feffff" opacity="1.00" d=" M 194.12 0.00 L 246.88 0.00 C 246.81 22.67 246.92 45.34 246.81 68.01 C 246.95 69.67 246.60 71.62 247.77 73.00 L 194.08 73.00 C 194.13 48.67 194.06 24.33 194.12 0.00 Z" />
<path fill="#feffff" opacity="1.00" d=" M 292.31 0.00 L 296.11 0.00 C 296.10 20.33 296.12 40.66 296.09 60.99 C 296.11 64.99 295.82 69.03 296.53 73.00 L 293.13 73.00 C 293.20 50.33 293.08 27.66 293.19 4.99 C 293.12 3.31 293.25 1.49 292.31 0.00 Z" />
<path fill="#feffff" opacity="1.00" d=" M 342.39 0.00 L 396.11 0.00 C 396.34 24.33 395.84 48.68 396.36 73.00 L 342.81 73.00 C 342.70 52.66 342.78 32.32 342.77 11.99 C 342.69 7.99 343.08 3.96 342.39 0.00 Z" />
<path fill="#feffff" opacity="1.00" d=" M 443.35 0.00 L 444.83 0.00 C 444.68 24.33 445.05 48.67 444.65 73.00 L 443.16 73.00 C 443.33 48.67 442.96 24.33 443.35 0.00 Z" />
<path fill="#feffff" opacity="1.00" d=" M 491.36 0.00 L 494.87 0.00 C 494.76 24.33 495.04 48.67 494.73 73.00 L 491.89 73.00 C 491.99 49.98 491.74 26.96 492.04 3.94 C 492.04 2.59 491.81 1.27 491.36 0.00 Z" />
<path fill="#feffff" opacity="1.00" d=" M 541.27 0.00 L 544.13 0.00 C 543.82 24.33 544.34 48.67 544.02 73.00 L 541.13 73.00 C 541.24 48.67 540.96 24.33 541.27 0.00 Z" />
<path fill="#feffff" opacity="1.00" d=" M 591.59 0.00 L 594.87 0.00 C 594.82 21.66 594.91 43.32 594.82 64.99 C 594.90 67.66 594.45 70.50 595.64 73.00 L 591.78 73.00 C 591.67 48.67 592.07 24.32 591.59 0.00 Z" />
<path fill="#feffff" opacity="1.00" d=" M 641.27 0.00 L 644.10 0.00 C 644.10 22.68 644.15 45.36 644.07 68.04 C 644.08 69.70 644.24 71.36 644.51 73.00 L 641.13 73.00 C 641.25 48.67 640.97 24.33 641.27 0.00 Z" />
<path fill="#feffff" opacity="1.00" d=" M 168.54 13.92 C 169.56 11.18 170.55 8.42 171.60 5.69 C 174.04 5.71 176.47 5.72 178.90 5.74 C 177.58 8.46 176.18 11.14 174.91 13.88 C 172.78 13.96 170.66 13.96 168.54 13.92 Z" />
<path fill="#feffff" opacity="1.00" d=" M 12.43 56.80 C 15.06 43.08 16.67 29.19 19.38 15.49 C 22.36 15.53 25.34 15.54 28.31 15.56 C 30.55 29.32 32.84 43.08 34.87 56.87 C 31.97 56.86 29.07 56.86 26.17 56.87 C 25.86 54.39 25.60 51.90 25.35 49.41 C 24.11 49.37 22.86 49.34 21.61 49.30 C 21.33 51.82 21.00 54.34 20.66 56.85 C 17.92 56.84 15.17 56.83 12.43 56.80 M 22.16 43.54 C 22.82 43.56 24.14 43.59 24.79 43.61 C 24.53 38.95 23.89 34.33 23.46 29.68 C 22.73 34.27 22.37 38.90 22.16 43.54 Z" />
<path fill="#feffff" opacity="1.00" d=" M 62.47 16.16 C 68.37 16.42 76.08 14.33 80.13 19.98 C 83.94 26.09 83.62 34.75 79.38 40.59 C 80.65 46.02 81.94 51.45 83.35 56.84 C 80.48 56.85 77.61 56.85 74.74 56.82 C 73.75 52.11 72.59 47.42 71.42 42.75 C 70.78 47.42 70.79 52.15 70.86 56.86 C 68.08 56.85 65.29 56.84 62.50 56.81 C 62.49 43.26 62.55 29.71 62.47 16.16 M 71.29 23.57 C 70.43 28.08 70.95 32.70 70.96 37.26 C 74.98 36.26 73.89 31.10 74.03 27.97 C 73.91 26.44 73.51 22.72 71.29 23.57 Z" />
<path fill="#feffff" opacity="1.00" d=" M 108.09 16.08 C 111.48 16.09 114.88 16.09 118.27 16.14 C 118.93 23.06 119.67 29.99 120.78 36.86 C 121.59 29.98 122.21 23.07 122.87 16.17 C 126.36 16.08 129.85 16.08 133.34 16.16 C 133.29 29.72 133.38 43.29 133.29 56.85 C 130.50 56.85 127.72 56.84 124.93 56.81 C 124.81 51.79 124.87 46.77 124.54 41.76 C 123.99 46.81 123.58 51.87 122.57 56.85 C 121.06 56.84 119.56 56.82 118.06 56.80 C 117.35 50.78 116.24 44.81 115.40 38.80 C 115.64 44.80 115.51 50.82 115.49 56.83 C 113.09 56.84 110.69 56.85 108.29 56.85 C 108.39 43.26 107.96 29.68 108.09 16.08 Z" />
<path fill="#feffff" opacity="1.00" d=" M 167.21 15.56 C 170.23 15.55 173.26 15.55 176.29 15.56 C 178.55 29.31 180.87 43.05 182.84 56.84 C 179.95 56.84 177.05 56.85 174.16 56.86 C 173.85 54.39 173.60 51.91 173.38 49.44 C 172.13 49.38 170.87 49.34 169.62 49.29 C 169.34 51.81 168.98 54.33 168.64 56.85 C 165.91 56.85 163.18 56.84 160.45 56.82 C 162.94 43.11 164.90 29.30 167.21 15.56 M 171.41 29.65 C 170.80 34.27 170.40 38.91 170.13 43.56 C 170.80 43.57 172.14 43.58 172.80 43.58 C 172.52 38.92 171.88 34.29 171.41 29.65 Z" />
<path fill="#feffff" opacity="1.00" d=" M 261.32 16.12 C 267.52 16.11 273.71 16.09 279.91 16.10 C 279.90 18.58 279.88 21.05 279.86 23.53 C 278.28 23.50 276.70 23.48 275.12 23.45 C 274.53 34.57 275.00 45.73 274.87 56.86 C 272.02 56.85 269.16 56.84 266.31 56.84 C 266.28 45.73 266.29 34.63 266.29 23.52 C 264.64 23.51 262.98 23.49 261.34 23.49 C 261.33 21.03 261.33 18.57 261.32 16.12 Z" />
<path fill="#feffff" opacity="1.00" d=" M 308.32 15.71 C 311.15 15.71 313.99 15.72 316.82 15.72 C 317.22 27.11 316.15 38.58 317.48 49.91 C 318.02 49.89 319.11 49.84 319.66 49.82 C 320.62 38.48 319.81 27.07 320.14 15.70 C 322.85 15.71 325.56 15.72 328.27 15.74 C 328.32 25.49 328.28 35.23 328.31 44.98 C 328.27 48.72 327.83 53.14 324.53 55.52 C 320.70 57.99 315.43 57.91 311.61 55.46 C 308.85 53.21 308.31 49.38 308.28 46.03 C 308.29 35.93 308.24 25.82 308.32 15.71 Z" />
<path fill="#feffff" opacity="1.00" d=" M 411.31 16.12 C 416.50 16.08 421.70 16.10 426.89 16.11 C 426.86 18.58 426.84 21.05 426.82 23.52 C 424.59 23.49 422.36 23.48 420.14 23.45 C 419.95 26.29 419.88 29.14 419.94 31.98 C 421.58 32.05 423.22 32.10 424.87 32.14 C 424.85 34.39 424.85 36.63 424.87 38.87 C 423.29 38.86 421.71 38.85 420.14 38.84 C 419.84 42.47 419.85 46.11 420.12 49.74 C 422.52 49.72 424.92 49.72 427.33 49.71 C 427.32 52.08 427.32 54.45 427.33 56.82 C 421.99 56.87 416.65 56.88 411.31 56.82 C 411.34 43.26 411.35 29.69 411.31 16.12 Z" />
<path fill="#feffff" opacity="1.00" d=" M 463.52 16.56 C 467.93 13.99 474.58 15.35 476.70 20.31 C 479.46 26.45 479.49 33.44 479.25 40.05 C 478.71 46.29 477.83 53.95 471.60 57.16 C 471.98 58.20 472.37 59.24 472.76 60.29 C 474.04 60.46 475.33 60.62 476.62 60.79 C 476.64 63.30 476.66 65.82 476.67 68.33 C 473.39 68.64 469.22 68.97 467.14 65.82 C 464.58 62.68 466.64 57.45 462.80 55.20 C 459.08 52.32 458.44 47.28 457.94 42.92 C 457.47 37.19 457.50 31.38 458.47 25.70 C 459.14 22.25 460.42 18.56 463.52 16.56 M 467.46 23.48 C 466.28 27.87 466.73 32.44 466.67 36.94 C 466.63 41.20 466.43 45.51 467.47 49.69 C 467.98 49.66 469.01 49.60 469.52 49.58 C 470.68 40.97 470.74 32.10 469.53 23.50 C 469.01 23.49 467.98 23.48 467.46 23.48 Z" />
<path fill="#feffff" opacity="1.00" d=" M 507.37 15.73 C 510.19 15.72 513.03 15.71 515.86 15.69 C 515.98 25.48 515.85 35.27 515.92 45.07 C 516.10 47.09 515.65 50.01 518.37 50.43 C 518.84 48.00 519.18 45.53 519.17 43.05 C 519.10 33.93 519.13 24.82 519.16 15.70 C 521.87 15.71 524.59 15.72 527.31 15.73 C 527.35 25.49 527.32 35.25 527.35 45.01 C 527.32 48.99 526.58 53.68 522.92 55.99 C 519.06 57.90 514.16 57.85 510.55 55.40 C 507.73 53.22 507.40 49.35 507.33 46.05 C 507.33 35.94 507.30 25.84 507.37 15.73 Z" />
<path fill="#feffff" opacity="1.00" d=" M 563.12 16.11 C 565.99 16.10 568.86 16.10 571.74 16.11 C 571.70 29.69 571.72 43.27 571.72 56.85 C 568.86 56.85 566.00 56.84 563.15 56.85 C 563.12 43.27 563.17 29.69 563.12 16.11 Z" />
<path fill="#feffff" opacity="1.00" d=" M 608.27 16.13 C 612.81 16.25 617.46 15.57 621.92 16.64 C 626.33 18.03 628.16 22.86 628.37 27.09 C 628.67 31.77 628.59 36.93 625.87 40.95 C 623.90 43.88 620.07 44.08 616.91 44.50 C 616.83 48.56 616.83 52.62 616.83 56.68 C 613.98 56.66 611.14 56.66 608.29 56.66 C 608.28 43.15 608.31 29.64 608.27 16.13 M 616.89 37.07 C 617.94 36.65 619.42 36.43 619.58 35.03 C 620.34 30.91 620.85 25.97 617.70 22.64 C 616.18 27.30 617.05 32.27 616.89 37.07 Z" />
<path fill="#feffff" opacity="1.00" d=" M 665.09 16.17 C 668.27 15.67 671.79 16.76 673.60 19.55 C 676.85 24.35 676.62 30.46 676.87 36.02 C 676.75 42.01 677.02 48.53 673.83 53.85 C 670.95 58.85 662.82 59.06 659.49 54.46 C 657.27 51.08 656.54 46.97 656.29 43.01 C 656.03 36.71 655.72 30.23 657.36 24.08 C 658.20 20.32 660.92 16.42 665.09 16.17 M 665.04 27.94 C 664.80 35.43 664.32 43.06 665.89 50.44 C 668.51 48.95 667.77 45.50 668.09 43.00 C 667.80 36.72 668.93 30.19 667.15 24.07 C 664.97 23.58 665.44 26.66 665.04 27.94 Z" />
</g>
</svg>
