<svg xmlns="http://www.w3.org/2000/svg" xmlns:xlink="http://www.w3.org/1999/xlink" viewBox="0 0 699 543"><defs><radialGradient id="radial-gradient" cx="221.5" cy="79.5" r="312.94" gradientTransform="translate(429 50) rotate(90)" gradientUnits="userSpaceOnUse"><stop offset="0" stop-color="#57ba1c"/><stop offset=".23" stop-color="#50ba1e"/><stop offset=".58" stop-color="#3cbb22"/><stop offset=".99" stop-color="#1cbc2a"/><stop offset="1" stop-color="#1bbc2a"/></radialGradient></defs><title>cancha</title><g id="Capa_2" data-name="Capa 2"><g id="Objects"><rect width="699" height="543" fill="url(#radial-gradient)"/><rect width="37" height="543" x="662" fill="#04b218"/><rect width="37" height="543" x="593" fill="#04b218"/><rect width="37" height="543" x="523" fill="#04b218"/><rect width="37" height="543" x="454" fill="#04b218"/><rect width="37" height="543" x="385" fill="#04b218"/><rect width="37" height="543" x="315" fill="#04b218"/><rect width="37" height="543" x="246" fill="#04b218"/><rect width="37" height="543" x="177" fill="#04b218"/><rect width="37" height="543" x="107" fill="#04b218"/><rect width="37" height="543" x="38" fill="#04b218"/><polygon fill="none" stroke="#fff" stroke-miterlimit="10" stroke-width="5" points="18.5 525.5 18.5 18.5 681.5 18.5 681.5 525.5 349.5 525.5 18.5 525.5"/><line x1="351.5" x2="351.5" y1="19" y2="525" fill="none" stroke="#fff" stroke-miterlimit="10" stroke-width="5"/><circle cx="352" cy="269.75" r="70.95" fill="none" stroke="#fff" stroke-miterlimit="10" stroke-width="5"/><rect width="109" height="229" x="572.5" y="157.5" fill="none" stroke="#fff" stroke-miterlimit="10" stroke-width="5"/><rect width="58" height="123" x="623.5" y="210.5" fill="none" stroke="#fff" stroke-miterlimit="10" stroke-width="5"/><path fill="none" stroke="#fff" stroke-miterlimit="10" stroke-width="5" d="M572.5,319.52a55.67,55.67,0,0,1,0-95"/><path fill="none" stroke="#fff" stroke-miterlimit="10" stroke-width="5" d="M653.37,525.5a28.14,28.14,0,0,1,28.13-28.13"/><path fill="none" stroke="#fff" stroke-miterlimit="10" stroke-width="5" d="M653.37,18.38A28.13,28.13,0,0,0,681.5,46.5"/><rect width="109" height="229" x="18.5" y="157.5" fill="none" stroke="#fff" stroke-miterlimit="10" stroke-width="5"/><rect width="58" height="123" x="18.5" y="210.5" fill="none" stroke="#fff" stroke-miterlimit="10" stroke-width="5"/><path fill="none" stroke="#fff" stroke-miterlimit="10" stroke-width="5" d="M127.84,319.52a55.67,55.67,0,0,0,0-95"/><path fill="none" stroke="#fff" stroke-miterlimit="10" stroke-width="5" d="M47,525.5a28.14,28.14,0,0,0-28.13-28.13"/><path fill="none" stroke="#fff" stroke-miterlimit="10" stroke-width="5" d="M47,18.38A28.13,28.13,0,0,1,18.84,46.5"/></g></g></svg>